<svg xmlns="http://www.w3.org/2000/svg" viewBox="0 0 21.955 11">
  <defs>
    <style>
      .cls-1 {
        fill: #263238;
      }
    </style>
  </defs>
  <path id="Path_2078" data-name="Path 2078" class="cls-1" d="M16.3,9.5H5.7A4.134,4.134,0,0,1,1.5,5.9a4,4,0,0,1,4-4.4H17.9a2.519,2.519,0,0,1,2.6,2.2A2.553,2.553,0,0,1,18,6.5H7.5a.945.945,0,0,1-1-1,.945.945,0,0,1,1-1h8.8a.789.789,0,0,0,.8-.8.709.709,0,0,0-.8-.7H7.6A2.519,2.519,0,0,0,5,5.2,2.553,2.553,0,0,0,7.5,8H17.8a3.967,3.967,0,0,0,4.1-3.6A3.92,3.92,0,0,0,18,0H5.7A5.723,5.723,0,0,0,0,5a5.493,5.493,0,0,0,5.5,6H16.3a.789.789,0,0,0,.8-.8A.709.709,0,0,0,16.3,9.5Z" transform="translate(0.024)"/>
</svg>
