<svg xmlns="http://www.w3.org/2000/svg" viewBox="0 0 17.912 14.655">
  <defs>
    <style>
      .cls-1 {
        fill: #263238;
      }
    </style>
  </defs>
  <path id="Path_2255" data-name="Path 2255" class="cls-1" d="M16.284,0H1.628A1.633,1.633,0,0,0,0,1.628V4.071a.814.814,0,0,0,1.628,0V2.443a.816.816,0,0,1,.814-.814H15.469a.816.816,0,0,1,.814.814v9.77a.876.876,0,0,1-.814.814H2.443a.876.876,0,0,1-.814-.814V10.584a.814.814,0,0,0-1.628,0v2.443a1.633,1.633,0,0,0,1.628,1.628H16.284a1.633,1.633,0,0,0,1.628-1.628V1.628A1.633,1.633,0,0,0,16.284,0ZM8.875,9.852l2.28-2.28a.394.394,0,0,0,0-.57l-2.28-2.28a.45.45,0,0,0-.733.326V6.513H.814a.814.814,0,0,0,0,1.628H8.142V9.607C8.142,9.933,8.549,10.1,8.875,9.852Z" transform="translate(0)"/>
</svg>
