<svg xmlns="http://www.w3.org/2000/svg" viewBox="0 0 18.007 18">
  <defs>
    <style>
      .cls-1 {
        fill: #263238;
      }
    </style>
  </defs>
  <path id="Path_2077" data-name="Path 2077" class="cls-1" d="M17,0H10A1,1,0,0,0,9,1v9l3-3h5a1,1,0,0,0,1-1V1A1.075,1.075,0,0,0,17,0Zm-.8,12.3L13.7,12a1.658,1.658,0,0,0-1.6.6l-1.8,1.8A15.269,15.269,0,0,1,3.6,7.8L5.5,5.9a2.271,2.271,0,0,0,.6-1.6L5.7,1.8A2.046,2.046,0,0,0,3.7,0H2A1.97,1.97,0,0,0,0,2.1,17.1,17.1,0,0,0,15.9,18,2.094,2.094,0,0,0,18,16V14.3A1.973,1.973,0,0,0,16.2,12.3Z" transform="translate(0.007)"/>
</svg>
